<?xml version="1.0" encoding="utf-8"?>
<!-- Generator: Adobe Illustrator 21.1.0, SVG Export Plug-In . SVG Version: 6.00 Build 0)  -->
<svg version="1.1" id="Layer_1" xmlns="http://www.w3.org/2000/svg" xmlns:xlink="http://www.w3.org/1999/xlink" x="0px" y="0px"
	 viewBox="0 0 144 144" style="enable-background:new 0 0 144 144;" xml:space="preserve">
<style type="text/css">
	.st0{fill:#6E1818;}
</style>
<title>contact-icons</title>
<path class="st0" d="M30.5,104.1c9.8,0.9,19.6-2,27.3-8c-3.9-0.1-7.7-1.4-10.8-3.7c-3.1-2.3-5.5-5.6-6.6-9.3
	c2.7,0.5,5.4,0.4,8.1-0.3c-9.2-2.8-14.1-8.9-14.8-18.7c2.6,1.4,5.5,2.2,8.5,2.3c-3.9-2.7-6.7-6.8-7.7-11.5c-1-4.6-0.3-9.4,2.1-13.5
	c10.2,11.9,23,18.5,38.6,19.6c-0.1-1-0.2-2-0.3-3c-0.7-10.3,7-19.3,17.3-20c0.9-0.1,1.8-0.1,2.8,0c4.3,0.3,8.4,2.1,11.5,5.1
	c0.5,0.5,1.3,0.7,1.9,0.5c3.8-0.9,7.4-2.3,10.8-4.3c-1.4,4.2-4.1,7.8-7.7,10.2c3.4-0.4,6.8-1.3,10-2.7l0.2,0.2
	c-1.5,1.8-3,3.6-4.6,5.3c-1.3,1.3-2.8,2.4-4.2,3.7c-0.3,0.3-0.5,0.7-0.5,1.1c0.3,11.8-3.2,23.5-10.1,33.1
	c-7.1,10.5-18,17.8-30.4,20.6c-6.5,1.5-13.3,1.9-19.9,1c-7.5-1-14.6-3.5-21-7.5L30.5,104.1z"/>
</svg>
