<?xml version="1.0" encoding="utf-8"?>
<!-- Generator: Adobe Illustrator 21.1.0, SVG Export Plug-In . SVG Version: 6.00 Build 0)  -->
<svg version="1.1" id="Layer_1" xmlns="http://www.w3.org/2000/svg" xmlns:xlink="http://www.w3.org/1999/xlink" x="0px" y="0px"
	 viewBox="0 0 144 144" style="enable-background:new 0 0 144 144;" xml:space="preserve">
<style type="text/css">
	.st0{fill:#6E1818;}
</style>
<title>contact-icons</title>
<path class="st0" d="M106.4,111.1c-3.8,1.5-7.4,3-11.1,4.4c-4.3,1.6-9.1,1.3-13.1-0.9c-2.2-1-4.3-2.3-6.2-3.8
	C61,98.2,50.6,83,49,62.8c-0.3-4.5-0.8-9-0.9-13.5c-0.1-7.4,3.7-12.7,10.7-15c2.3-0.8,4.8-1.2,7.4-1.9c0.2,5.2,0.4,10,0.5,14.7
	c0.1,2.7,0.2,5.3,0.1,8c-0.1,1.1-0.6,2.2-1.4,3c-3.2,2.8-4,5.8-2,9.6c4.5,8.5,9.1,17,13.7,25.5c1.9,3.5,4.2,4.2,8,3.1
	c1.1-0.3,2.2-0.2,3.2,0.3c5.8,4.4,11.5,9,17.3,13.5C106,110.5,106.2,110.8,106.4,111.1z"/>
<path class="st0" d="M108.4,109.7l-20-15.9c1.9-1,3.4-2,5-2.5c1.2-0.2,2.5,0,3.5,0.7c4,2.9,7.9,5.9,11.8,8.9
	c1.4,0.9,1.9,2.6,1.2,4.1C109.4,106.5,109,108,108.4,109.7z"/>
<path class="st0" d="M68.1,33c4.1-0.6,7.1,1.8,7.1,5.5c0,4.2,0.1,8.4,0.1,12.6c0,2.5-1.6,4.7-4,5.5C70.1,57,69,56.7,69,55.4
	C68.6,48,68.4,40.5,68.1,33z"/>
</svg>
