<?xml version="1.0" encoding="utf-8"?>
<!-- Generator: Adobe Illustrator 21.1.0, SVG Export Plug-In . SVG Version: 6.00 Build 0)  -->
<svg version="1.1" id="Layer_1" xmlns="http://www.w3.org/2000/svg" xmlns:xlink="http://www.w3.org/1999/xlink" x="0px" y="0px"
	 viewBox="0 0 144 144" style="enable-background:new 0 0 144 144;" xml:space="preserve">
<style type="text/css">
	.st0{fill:#FFFFFF;}
	.st1{fill:none;stroke:#FFFFFF;stroke-width:8;stroke-miterlimit:10;}
</style>
<title>contact-icons</title>
<g>
	<path class="st0" d="M90.5,55.3c-2.8,0.1-5-2.1-5.1-4.9c0-0.1,0-0.2,0-0.2c0-2.8,2.3-5.1,5.1-5.1l0,0c2.8,0,5.1,2.3,5.1,5.1
		C95.7,53,93.4,55.3,90.5,55.3L90.5,55.3z"/>
	<g>
		<path class="st1" d="M84.4,111H51.6c-12.2,0-22.1-9.9-22.1-22.1V56.1c0-12.2,9.9-22.1,22.1-22.1h32.8c12.2,0,22.1,9.9,22.1,22.1
			v32.8C106.5,101.1,96.7,111,84.4,111z"/>
		<path class="st1" d="M68,90.4L68,90.4c-9.9,0-17.9-8.1-17.9-17.9v0c0-9.9,8.1-17.9,17.9-17.9h0c9.9,0,17.9,8.1,17.9,17.9v0
			C86,82.4,77.9,90.4,68,90.4z"/>
	</g>
</g>
</svg>
