<svg id="Layer_1" data-name="Layer 1" xmlns="http://www.w3.org/2000/svg" viewBox="0 0 144 144"><title>contact-icons</title><path d="M75.77,105.09H37.16a6,6,0,0,1-1.41-.11,3.24,3.24,0,0,1-2.46-3c0-.45,0-.9,0-1.36q0-28.29,0-56.59a3.31,3.31,0,0,1,3.55-3.56l60.79.31,17.1.1a3.28,3.28,0,0,1,3.55,3.54q0,28.5,0,57a3.53,3.53,0,0,1-3.73,3.74C101.64,105.07,88.7,105.09,75.77,105.09Zm32.08-6.6L86,72.85l-.25.17-8,6.71a3.29,3.29,0,0,1-4.61,0l-5.41-4.42-2-1.62L43.88,98.49ZM75.38,73,105.9,47.5l-.08-.13-60.16-.31,0,.16ZM60.93,69.2l-21-18.25V93.09Zm30-.6,20.72,24.27V51.21Z"/></svg>