<?xml version="1.0" encoding="utf-8"?>
<!-- Generator: Adobe Illustrator 21.1.0, SVG Export Plug-In . SVG Version: 6.00 Build 0)  -->
<svg version="1.1" id="Layer_1" xmlns="http://www.w3.org/2000/svg" xmlns:xlink="http://www.w3.org/1999/xlink" x="0px" y="0px"
	 viewBox="0 0 144 144" style="enable-background:new 0 0 144 144;" xml:space="preserve">
<style type="text/css">
	.st0{fill:#6E1818;}
</style>
<title>contact-icons</title>
<path class="st0" d="M61.7,137.1c0,0,0.3-30.8,0.5-47.1c0-1.5-0.5-1.9-2-1.9c-4.7,0-9.3-0.1-13.9-0.1c-1.5,0-1.9-0.5-1.9-1.9
	c0.1-5.7,0.2-11.4,0.2-17.1c0-1.5,0.5-2.1,2-2c4.4,0.1,8.8,0.1,13.2,0.2c2.6,0,2.5,0,2.6-2.6c0.3-6.5,0-13,1-19.3
	c1.4-8.7,6.4-15.1,14.9-18.1s17.3-1.7,26-0.9c1.5,0.1,1.3,1.2,1.3,2.1c0,4.9-0.2,9.8-0.1,14.7c0,1.9-0.8,2.3-2.5,2.3
	c-3.7-0.1-7.5-0.1-11.2,0c-4.1,0.1-6.8,2.3-7.2,6.3s-0.4,8-0.5,11.9s0,3.8,3.8,3.9c4.9,0,9.8,0.1,14.7,0.2c0.8,0,1.9-0.2,1.7,1.2
	c-0.8,6.1-1.7,12.3-2.6,18.4c-0.2,1.1-0.8,1.4-1.9,1.4c-4.6-0.1-9.2,0-13.8-0.2c-1.7-0.1-2.4,0.3-2.4,2.2c-0.1,16-0.5,46.5-0.5,46.5
	L61.7,137.1z"/>
</svg>
