<svg id="Layer_1" data-name="Layer 1" xmlns="http://www.w3.org/2000/svg" viewBox="0 0 144 144"><title>contact-icons</title><path d="M71.78,21.89H75c.81.08,1.61.15,2.42.25A33.94,33.94,0,0,1,100.1,34.42a34.06,34.06,0,0,1,7.74,27.11,43.7,43.7,0,0,1-2.11,8.23,111.78,111.78,0,0,1-7.89,17.82,270.65,270.65,0,0,1-24.18,36.69c-.07.1-.16.18-.26.29l-.27-.32A285.93,285.93,0,0,1,53.86,96.16C48.5,87.22,43.7,78,40.51,68A34.81,34.81,0,0,1,69.32,22.14Zm1.63,51.85a17.06,17.06,0,1,0-17.05-17A17.06,17.06,0,0,0,73.41,73.74Z"/></svg>