<?xml version="1.0" encoding="utf-8"?>
<!-- Generator: Adobe Illustrator 21.1.0, SVG Export Plug-In . SVG Version: 6.00 Build 0)  -->
<svg version="1.1" id="Layer_1" xmlns="http://www.w3.org/2000/svg" xmlns:xlink="http://www.w3.org/1999/xlink" x="0px" y="0px"
	 viewBox="0 0 144 144" style="enable-background:new 0 0 144 144;" xml:space="preserve">
<style type="text/css">
	.st0{fill:#6E1818;}
</style>
<title>contact-icons</title>
<path class="st0" d="M71.8,21.9H75c0.8,0.1,1.6,0.1,2.4,0.2c8.9,0.9,17,5.4,22.7,12.3c6.4,7.5,9.2,17.4,7.7,27.1
	c-0.4,2.8-1.1,5.6-2.1,8.2c-2.1,6.2-4.7,12.1-7.9,17.8c-7.1,12.9-15.1,25.1-24.2,36.7c-0.1,0.1-0.2,0.2-0.3,0.3l-0.3-0.3
	c-7-9-13.4-18.3-19.3-28.1C48.5,87.2,43.7,78,40.5,68C34.3,49.8,44,30,62.1,23.8c2.3-0.8,4.7-1.3,7.2-1.6L71.8,21.9z M73.4,73.7
	c9.4,0,17.1-7.6,17.1-17.1s-7.6-17.1-17.1-17.1c-9.4,0-17.1,7.6-17.1,17.1c0,0,0,0,0,0.1C56.4,66.1,64,73.7,73.4,73.7z"/>
</svg>
