<?xml version="1.0" encoding="utf-8"?>
<!-- Generator: Adobe Illustrator 21.1.0, SVG Export Plug-In . SVG Version: 6.00 Build 0)  -->
<svg version="1.1" id="Layer_1" xmlns="http://www.w3.org/2000/svg" xmlns:xlink="http://www.w3.org/1999/xlink" x="0px" y="0px"
	 viewBox="0 0 144 144" style="enable-background:new 0 0 144 144;" xml:space="preserve">
<style type="text/css">
	.st0{fill:#6E1818;}
</style>
<title>contact-icons</title>
<path class="st0" d="M75.8,105.1H37.2c-0.5,0-0.9,0-1.4-0.1c-1.4-0.3-2.4-1.6-2.5-3c0-0.4,0-0.9,0-1.4c0-18.9,0-37.7,0-56.6
	c-0.1-1.8,1.2-3.4,3-3.6c0.2,0,0.3,0,0.5,0l60.8,0.3l17.1,0.1c1.8-0.2,3.4,1.2,3.5,3c0,0.2,0,0.4,0,0.6c0,19,0,38,0,57
	c0.1,1.9-1.4,3.6-3.3,3.7c-0.1,0-0.3,0-0.4,0C101.6,105.1,88.7,105.1,75.8,105.1z M107.8,98.5L86,72.8L85.8,73l-8,6.7
	c-1.3,1.3-3.3,1.3-4.6,0l-5.4-4.4l-2-1.6L43.9,98.5H107.8z M75.4,73l30.5-25.5l-0.1-0.1l-60.2-0.3v0.2L75.4,73z M60.9,69.2l-21-18.2
	v42.1L60.9,69.2z M90.9,68.6l20.7,24.3V51.2L90.9,68.6z"/>
</svg>
