<svg id="Layer_1" data-name="Layer 1" xmlns="http://www.w3.org/2000/svg" viewBox="0 0 144 144"><title>contact-icons</title><path d="M106.37,111.14c-3.79,1.51-7.43,3-11.12,4.4a16,16,0,0,1-13.09-.87,30.93,30.93,0,0,1-6.22-3.79C61,98.22,50.56,83,49,62.82c-.34-4.49-.79-9-.87-13.47-.13-7.38,3.7-12.68,10.74-15,2.32-.78,4.76-1.2,7.41-1.86.18,5.25.36,10,.51,14.66.08,2.66.25,5.32.1,8a4.64,4.64,0,0,1-1.37,3c-3.24,2.82-4,5.8-2,9.63Q70.3,80.52,77.25,93.24c1.89,3.47,4.18,4.2,8,3.14a4.22,4.22,0,0,1,3.22.29c5.83,4.41,11.53,9,17.27,13.51A6.06,6.06,0,0,1,106.37,111.14Z"/><path d="M108.42,109.73l-20-15.87c1.91-1,3.39-2,5-2.46a4.71,4.71,0,0,1,3.48.66c4,2.86,7.9,5.92,11.82,8.92a3.24,3.24,0,0,1,1.19,4.09C109.4,106.52,109,108,108.42,109.73Z"/><path d="M68.1,33c4.06-.61,7.1,1.83,7.14,5.45q.06,6.3.06,12.59a5.85,5.85,0,0,1-4,5.51c-1.19.4-2.25.18-2.32-1.15C68.63,47.95,68.38,40.47,68.1,33Z"/></svg>