<svg id="Layer_1" data-name="Layer 1" xmlns="http://www.w3.org/2000/svg" viewBox="0 0 72 72"><defs><style>.cls-1{fill:none;stroke:#3e1312;stroke-linecap:round;stroke-miterlimit:10;stroke-width:3px;}</style></defs><title>icons</title><path class="cls-1" d="M26.89,27.36a20,20,0,0,1,9.93-17.24A20,20,0,1,0,16.93,44.75s0-.08,0-.11A20,20,0,0,1,26.89,27.36Z"/><path class="cls-1" d="M66.83,27.38a20,20,0,0,0-30-17.26,20,20,0,0,1,9.93,17.15A20,20,0,0,1,56.87,44.63v0A20,20,0,0,0,66.83,27.38Z"/><path class="cls-1" d="M26.89,27.36a20,20,0,0,1,19.86-.09,20,20,0,0,0-9.93-17.15A20,20,0,0,0,26.89,27.36Z"/><path class="cls-1" d="M36.82,44.64a20,20,0,0,1-19.89.11,20,20,0,0,0,39.93-.09,20,20,0,0,1-20,0Z"/><path class="cls-1" d="M36.82,44.64a20,20,0,0,1-9.93-17.26v0a20,20,0,0,0-10,17.28s0,.08,0,.11a20,20,0,0,0,19.89-.11Z"/><path class="cls-1" d="M46.74,27.26s0,.08,0,.11a20,20,0,0,1-9.93,17.26,20,20,0,0,0,20,0v0A20,20,0,0,0,46.74,27.26Z"/><path class="cls-1" d="M26.89,27.36v0a20,20,0,0,0,9.93,17.26,20,20,0,0,0,9.93-17.26s0-.08,0-.11a20,20,0,0,0-19.86.09Z"/></svg>