<?xml version="1.0" encoding="utf-8"?>
<!-- Generator: Adobe Illustrator 21.1.0, SVG Export Plug-In . SVG Version: 6.00 Build 0)  -->
<svg version="1.1" id="Layer_1" xmlns="http://www.w3.org/2000/svg" xmlns:xlink="http://www.w3.org/1999/xlink" x="0px" y="0px"
	 viewBox="0 0 144 72" style="enable-background:new 0 0 144 72;" xml:space="preserve">
<style type="text/css">
	.st0{fill:none;stroke:#FFFFFF;stroke-width:2;stroke-linecap:round;stroke-linejoin:round;stroke-miterlimit:10;}
	.st1{fill:none;stroke:#FFFFFF;stroke-width:1.5285;stroke-linecap:round;stroke-linejoin:round;stroke-miterlimit:10;}
	.st2{fill:none;stroke:#FFFFFF;stroke-linecap:round;stroke-linejoin:round;stroke-miterlimit:10;}
	.st3{fill:none;stroke:#FFFFFF;stroke-width:2.5355;stroke-linecap:round;stroke-linejoin:round;stroke-miterlimit:10;}
	.st4{fill:#FFFFFF;stroke:#FFFFFF;stroke-width:0.5;stroke-miterlimit:10;}
</style>
<g>
	<polyline class="st0" points="44.8,52.8 5.3,52.8 5.3,25.5 47.7,25.5 47.7,46.5 	"/>
	<ellipse class="st1" cx="40.1" cy="22.2" rx="4.6" ry="0.4"/>
	<line class="st0" x1="35.7" y1="22.5" x2="36.7" y2="25.5"/>
	<line class="st0" x1="44.7" y1="22.5" x2="43.7" y2="25.4"/>
	<line class="st0" x1="7.2" y1="25" x2="7.2" y2="19.4"/>
	<line class="st0" x1="7.2" y1="19.4" x2="15.5" y2="19.4"/>
	<line class="st0" x1="15.5" y1="19.4" x2="15.5" y2="25.1"/>
	<line class="st2" x1="10.4" y1="23.7" x2="13.3" y2="22.5"/>
	<line class="st2" x1="9.2" y1="22.5" x2="12.1" y2="21.3"/>
	<line class="st0" x1="15.5" y1="19.4" x2="19.3" y2="25.2"/>
	<circle class="st3" cx="17" cy="39.9" r="7.2"/>
	<path class="st3" d="M9.8,39.3c0-9.3,12.7-12.7,17-4.3c2,4,0.5,7.9-0.7,9.7c-2.1,3.2-9.3,4.5-13.2,1.2"/>
	<path class="st3" d="M40.6,34.7h-2.3c-1.4,0-2.6-1.2-2.6-2.6v0c0-1.4,1.2-2.6,2.6-2.6h2.3c1.4,0,2.6,1.2,2.6,2.6v0
		C43.2,33.5,42.1,34.7,40.6,34.7z"/>
	<g>
		<path class="st4" d="M76.8,43.5c-3.8,3.6-8.4,6.4-13.8,6.4c-4,0-6.1-1.4-6.1-4.1c0-5.2,6.5-8.4,10-8.4c1.7,0,2.7,0.7,2.7,2.2
			c0,2.4-4.7,4.5-7.8,5.5c0,1.7,1,3.3,3.1,3.3c4.3,0,8.1-2.1,11.6-5.4L76.8,43.5z M68.1,39.8c0-0.3-0.3-0.5-0.7-0.5
			c-1.5,0-5.1,2.3-5.6,5.1C64.3,43.6,68.1,41.3,68.1,39.8z"/>
		<path class="st4" d="M99.9,43.5c-3.8,3.6-6.6,5.1-9.2,5.1c-2.7,0-4.8-1.7-5.1-4.4c-3.7,3.9-7.2,5.9-9,5.9c-1.4,0-2.7-0.8-2.7-2.2
			c0-4,5.1-10.1,10.6-10.1c0.3,0,0.8,0.1,1.1,0.2c1.5-9.7,7.5-18.2,11.8-18.2c1.4,0,2.5,1.1,2.5,2.8c0,4.6-5.9,13-10.8,18.5
			c0,3.8,1.6,5.7,3,5.7c2.5,0,3.9-0.4,7.4-3.6L99.9,43.5z M85.3,41.3c0-0.5,0-1.2,0.1-1.8c0,0-0.4-0.2-0.8-0.2
			c-2.2,0-6.2,5.2-6.2,7.7c0,0.4,0.2,0.6,0.5,0.6c1.1,0,2.7-0.8,6.5-4.3C85.3,42.7,85.3,41.9,85.3,41.3z M89.1,39.9
			C93,35.2,98.6,27,98.6,23c0-0.5-0.3-0.6-0.5-0.6C96,22.4,90.1,31.9,89.1,39.9z"/>
		<path class="st4" d="M114.4,43.5c-3.8,3.6-8,6.4-12,6.4c-2.4,0-4.6-0.9-4.6-3.1c0-3,2.9-5.7,3.3-8.3c0.2-1.2,1.1-2,2.4-2
			c1.3,0,2.1,1,2.1,2c0,2.3-3.2,4.3-3.2,8c0,1.1,0.8,1.7,2,1.7c2.8,0,6.2-1.9,9.7-5.2L114.4,43.5z M109.9,29.3c0,1.1-1.5,3-3,3
			c-0.9,0-1.7-0.6-1.7-1.6c0-1.4,1.6-3.1,2.9-3.1C109.2,27.6,109.9,28.3,109.9,29.3z"/>
		<path class="st4" d="M129.7,43.5c-3.8,3.6-8.1,6.4-11.7,6.4c-2.4,0-4.9-1.4-4.9-4.5c0-2.9,1.2-6.2,3.2-10.5
			c-0.9,0-1.1,0.2-1.4,0.2c-0.2,0-0.3-0.2-0.3-0.5c0-0.9,1.1-1.4,2.5-1.4c1.2-2.6,2.4-4.7,3.3-6c0.8-1.2,1.7-1.6,2.4-1.6
			c0.8,0,2,1.1,2,1.8c0,0.7-0.3,0.9-1.1,2c-0.9,1.2-1.9,2.8-2.4,3.9c1,0.2,2,0.2,2.7,0.2c1.1,0,1.8-0.5,2.6-0.9
			c0.3-0.2,0.5-0.3,0.8-0.3c0.2,0,0.2,0.2,0.2,0.3c0,0.5-0.4,1.3-1,1.9c-0.8,0.8-1.6,1.1-2.5,1.1c-1.7,0-2.8-0.7-3.5-0.8
			c-2.1,4.6-3.2,8.1-3.2,10.7c0,2.1,0.8,2.8,2.1,2.8c2.8,0,5.6-1.8,9.7-5.7L129.7,43.5z"/>
		<path class="st4" d="M129.6,43.6l-0.6-0.8l1.5-1.3c-0.6-0.5-1.5-0.8-1.5-1.7c0-1.7,1.1-2.6,3-2.6c0.7,0,2.4,0.5,2.4,1.3
			c0,1,0,0.9-0.8,1.9c0.6,1.4,2.2,1.4,2.2,3.3c0,1.4-1,2.8-1,4.2c0,0.5,0.2,0.8,0.8,0.8c0.6,0,5.4-2.3,5.6-2.3
			c0.2,0,0.3,0.1,0.3,0.3c0,0.5-5.9,3.9-7.8,3.9c-1.5,0-2-0.8-2-2c0-2.2,0.9-3.2,0.9-4.9c0-0.5-0.5-1-1.3-1.6L129.6,43.6z"/>
	</g>
	<path class="st0" d="M47.7,46.5c0,2.4,8.6,2.7,14-1.9"/>
</g>
</svg>
